{
    "asset" : {
        "generator" : "Khronos glTF Blender I/O v1.3.48",
        "version" : "2.0"
    },
    "scene" : 0,
    "scenes" : [
        {
            "name" : "Scene",
            "nodes" : [
                0,
                1
            ]
        }
    ],
    "nodes" : [
        {
            "name" : "Light",
            "rotation" : [
                0.16907575726509094,
                0.7558803558349609,
                -0.27217137813568115,
                0.570947527885437
            ],
            "translation" : [
                4.076245307922363,
                5.903861999511719,
                -1.0054539442062378
            ]
        },
        {
            "mesh" : 0,
            "name" : "Shirt01",
            "rotation" : [
                0.7071068286895752,
                0,
                0,
                0.7071067094802856
            ]
        }
    ],
    "materials" : [
        {
            "doubleSided" : true,
            "emissiveFactor" : [
                0,
                0,
                0
            ],
            "name" : "Shirt00_1:Material4782",
            "pbrMetallicRoughness" : {
                "baseColorTexture" : {
                    "index" : 0,
                    "texCoord" : 0
                },
                "metallicFactor" : 0,
                "roughnessFactor" : 0.5
            }
        },
        {
            "doubleSided" : true,
            "emissiveFactor" : [
                0,
                0,
                0
            ],
            "name" : "Shirt00_1:Button_FRONT",
            "pbrMetallicRoughness" : {
                "baseColorFactor" : [
                    0.800000011920929,
                    0.800000011920929,
                    0.800000011920929,
                    1
                ],
                "metallicFactor" : 0,
                "roughnessFactor" : 0.5
            }
        }
    ],
    "meshes" : [
        {
            "name" : "Shirt01",
            "primitives" : [
                {
                    "attributes" : {
                        "POSITION" : 0,
                        "NORMAL" : 1,
                        "TEXCOORD_0" : 2
                    },
                    "indices" : 3,
                    "material" : 0
                },
                {
                    "attributes" : {
                        "POSITION" : 4,
                        "NORMAL" : 5,
                        "TEXCOORD_0" : 6
                    },
                    "indices" : 7,
                    "material" : 1
                }
            ]
        }
    ],
    "textures" : [
        {
            "source" : 0
        }
    ],
    "images" : [
        {
            "mimeType" : "image/png",
            "name" : "Shirt_Texture_01",
            "uri" : "Shirt_Texture_01.png"
        }
    ],
    "accessors" : [
        {
            "bufferView" : 0,
            "componentType" : 5126,
            "count" : 36951,
            "max" : [
                0.3289831280708313,
                0.15986303985118866,
                0.3193882703781128
            ],
            "min" : [
                -0.3153628706932068,
                -0.12662695348262787,
                -0.3392888307571411
            ],
            "type" : "VEC3"
        },
        {
            "bufferView" : 1,
            "componentType" : 5126,
            "count" : 36951,
            "type" : "VEC3"
        },
        {
            "bufferView" : 2,
            "componentType" : 5126,
            "count" : 36951,
            "type" : "VEC2"
        },
        {
            "bufferView" : 3,
            "componentType" : 5123,
            "count" : 203724,
            "type" : "SCALAR"
        },
        {
            "bufferView" : 4,
            "componentType" : 5126,
            "count" : 686,
            "max" : [
                0.028877124190330505,
                0.152924045920372,
                0.18381023406982422
            ],
            "min" : [
                0.008298124186694622,
                0.06406904011964798,
                -0.2780088186264038
            ],
            "type" : "VEC3"
        },
        {
            "bufferView" : 5,
            "componentType" : 5126,
            "count" : 686,
            "type" : "VEC3"
        },
        {
            "bufferView" : 6,
            "componentType" : 5126,
            "count" : 686,
            "type" : "VEC2"
        },
        {
            "bufferView" : 7,
            "componentType" : 5123,
            "count" : 1680,
            "type" : "SCALAR"
        }
    ],
    "bufferViews" : [
        {
            "buffer" : 0,
            "byteLength" : 443412,
            "byteOffset" : 0
        },
        {
            "buffer" : 0,
            "byteLength" : 443412,
            "byteOffset" : 443412
        },
        {
            "buffer" : 0,
            "byteLength" : 295608,
            "byteOffset" : 886824
        },
        {
            "buffer" : 0,
            "byteLength" : 407448,
            "byteOffset" : 1182432
        },
        {
            "buffer" : 0,
            "byteLength" : 8232,
            "byteOffset" : 1589880
        },
        {
            "buffer" : 0,
            "byteLength" : 8232,
            "byteOffset" : 1598112
        },
        {
            "buffer" : 0,
            "byteLength" : 5488,
            "byteOffset" : 1606344
        },
        {
            "buffer" : 0,
            "byteLength" : 3360,
            "byteOffset" : 1611832
        }
    ],
    "buffers" : [
        {
            "byteLength" : 1615192,
            "uri" : "scene.bin"
        }
    ]
}
